<svg width="24" height="24" viewBox="0 0 24 24" fill="none" xmlns="http://www.w3.org/2000/svg">
<path fill-rule="evenodd" clip-rule="evenodd" d="M7.25 7.24988V7.12988C7.25 5.8701 7.75045 4.66192 8.64124 3.77113C9.53204 2.88033 10.7402 2.37988 12 2.37988C13.2598 2.37988 14.468 2.88033 15.3588 3.77113C16.2496 4.66192 16.75 5.8701 16.75 7.12988V7.24988H18.251C18.822 7.24988 19.307 7.66888 19.391 8.23388L19.609 9.72688C20.039 12.6649 20.039 15.6509 19.609 18.5889C19.508 19.2787 19.1799 19.9152 18.6766 20.3977C18.1733 20.8801 17.5235 21.1811 16.83 21.2529L16.201 21.3179C13.4078 21.6079 10.5922 21.6079 7.799 21.3179L7.17 21.2529C6.47651 21.1811 5.82674 20.8801 5.32345 20.3977C4.82015 19.9152 4.49204 19.2787 4.391 18.5889C3.96049 15.6506 3.96049 12.6652 4.391 9.72688L4.61 8.23388C4.6501 7.96045 4.78724 7.71057 4.99637 7.5299C5.20549 7.34923 5.47264 7.24984 5.749 7.24988H7.25ZM11.19 3.98288C11.6701 3.85933 12.1721 3.84724 12.6576 3.94755C13.1431 4.04787 13.5992 4.25792 13.9911 4.56163C14.3829 4.86534 14.7 5.25467 14.9182 5.69982C15.1365 6.14496 15.2499 6.63413 15.25 7.12988V7.24988H8.75V7.12988C8.7501 6.40901 8.98987 5.70862 9.43158 5.13892C9.87329 4.56922 10.4919 4.16255 11.19 3.98288ZM7.25 8.74988V10.9999C7.25 11.1988 7.32902 11.3896 7.46967 11.5302C7.61032 11.6709 7.80109 11.7499 8 11.7499C8.19891 11.7499 8.38968 11.6709 8.53033 11.5302C8.67098 11.3896 8.75 11.1988 8.75 10.9999V8.74988H15.25V10.9999C15.25 11.1988 15.329 11.3896 15.4697 11.5302C15.6103 11.6709 15.8011 11.7499 16 11.7499C16.1989 11.7499 16.3897 11.6709 16.5303 11.5302C16.671 11.3896 16.75 11.1988 16.75 10.9999V8.74988H17.95L18.125 9.94388C18.534 12.7383 18.534 15.5774 18.125 18.3719C18.0724 18.7319 17.9012 19.064 17.6386 19.3158C17.376 19.5676 17.0369 19.7245 16.675 19.7619L16.046 19.8259C13.356 20.1059 10.644 20.1059 7.954 19.8259L7.324 19.7609C6.96229 19.7233 6.62342 19.5663 6.36099 19.3145C6.09856 19.0628 5.92755 18.7307 5.875 18.3709C5.46565 15.5768 5.46565 12.738 5.875 9.94388L6.05 8.74988H7.25Z" fill="white"/>
</svg>
