<svg width="159" height="34" viewBox="0 0 159 34" fill="none" xmlns="http://www.w3.org/2000/svg">
<path d="M8.991 27.27C6.561 27.27 4.671 26.487 3.321 24.921C1.971 23.337 1.296 21.159 1.296 18.387C1.296 16.533 1.602 14.913 2.214 13.527C2.844 12.141 3.726 11.079 4.86 10.341C6.012 9.585 7.344 9.207 8.856 9.207C9.684 9.207 10.476 9.315 11.232 9.531C12.006 9.747 12.663 9.99 13.203 10.26C13.743 10.53 14.013 10.674 14.013 10.692L13.77 11.988C13.77 11.97 13.509 11.835 12.987 11.583C12.465 11.331 11.853 11.097 11.151 10.881C10.467 10.665 9.774 10.557 9.072 10.557C7.326 10.557 5.958 11.223 4.968 12.555C3.978 13.869 3.483 15.795 3.483 18.333C3.483 20.835 3.987 22.725 4.995 24.003C6.003 25.281 7.416 25.92 9.234 25.92C10.188 25.92 11.025 25.722 11.745 25.326C12.465 24.93 13.032 24.507 13.446 24.057C13.878 23.607 14.094 23.346 14.094 23.274L14.85 24.138C14.85 24.228 14.616 24.543 14.148 25.083C13.68 25.605 13.005 26.1 12.123 26.568C11.259 27.036 10.215 27.27 8.991 27.27ZM17.9364 27V9.45H19.9884V25.704H27.7914V27H17.9364ZM28.7284 27L34.6414 9.45H37.0444L42.8494 27H40.7164L38.8804 21.6H31.9954L30.1594 27H28.7284ZM32.3734 20.493H38.5294L35.4784 11.016L32.3734 20.493ZM49.8251 27.27C48.6551 27.27 47.6831 27.099 46.9091 26.757C46.1351 26.415 45.5591 26.055 45.1811 25.677C44.8211 25.281 44.6411 25.047 44.6411 24.975L45.3161 23.922C45.3161 23.976 45.4871 24.183 45.8291 24.543C46.1711 24.885 46.6661 25.209 47.3141 25.515C47.9801 25.803 48.7901 25.947 49.7441 25.947C50.8781 25.947 51.7691 25.623 52.4171 24.975C53.0651 24.309 53.3891 23.49 53.3891 22.518C53.3891 21.852 53.2271 21.294 52.9031 20.844C52.5791 20.394 52.1741 20.034 51.6881 19.764C51.2201 19.494 50.5811 19.188 49.7711 18.846C48.8351 18.468 48.0791 18.108 47.5031 17.766C46.9271 17.424 46.4411 16.956 46.0451 16.362C45.6491 15.75 45.4511 14.976 45.4511 14.04C45.4511 12.564 45.9191 11.394 46.8551 10.53C47.7911 9.648 49.0421 9.207 50.6081 9.207C51.3821 9.207 52.0751 9.324 52.6871 9.558C53.3171 9.774 53.8211 10.017 54.1991 10.287C54.5771 10.539 54.7661 10.683 54.7661 10.719L54.4961 11.907C54.4961 11.871 54.3161 11.727 53.9561 11.475C53.5961 11.223 53.1371 10.989 52.5791 10.773C52.0211 10.557 51.4001 10.449 50.7161 10.449C49.7081 10.449 48.9161 10.728 48.3401 11.286C47.7641 11.844 47.4761 12.6 47.4761 13.554C47.4761 14.22 47.6291 14.778 47.9351 15.228C48.2591 15.66 48.6551 16.011 49.1231 16.281C49.6091 16.551 50.2481 16.848 51.0401 17.172C51.9941 17.568 52.7591 17.946 53.3351 18.306C53.9111 18.648 54.3971 19.134 54.7931 19.764C55.2071 20.394 55.4141 21.204 55.4141 22.194C55.4141 23.184 55.1801 24.066 54.7121 24.84C54.2621 25.596 53.6141 26.19 52.7681 26.622C51.9221 27.054 50.9411 27.27 49.8251 27.27ZM63.0615 27.27C61.8915 27.27 60.9195 27.099 60.1455 26.757C59.3715 26.415 58.7955 26.055 58.4175 25.677C58.0575 25.281 57.8775 25.047 57.8775 24.975L58.5525 23.922C58.5525 23.976 58.7235 24.183 59.0655 24.543C59.4075 24.885 59.9025 25.209 60.5505 25.515C61.2165 25.803 62.0265 25.947 62.9805 25.947C64.1145 25.947 65.0055 25.623 65.6535 24.975C66.3015 24.309 66.6255 23.49 66.6255 22.518C66.6255 21.852 66.4635 21.294 66.1395 20.844C65.8155 20.394 65.4105 20.034 64.9245 19.764C64.4565 19.494 63.8175 19.188 63.0075 18.846C62.0715 18.468 61.3155 18.108 60.7395 17.766C60.1635 17.424 59.6775 16.956 59.2815 16.362C58.8855 15.75 58.6875 14.976 58.6875 14.04C58.6875 12.564 59.1555 11.394 60.0915 10.53C61.0275 9.648 62.2785 9.207 63.8445 9.207C64.6185 9.207 65.3115 9.324 65.9235 9.558C66.5535 9.774 67.0575 10.017 67.4355 10.287C67.8135 10.539 68.0025 10.683 68.0025 10.719L67.7325 11.907C67.7325 11.871 67.5525 11.727 67.1925 11.475C66.8325 11.223 66.3735 10.989 65.8155 10.773C65.2575 10.557 64.6365 10.449 63.9525 10.449C62.9445 10.449 62.1525 10.728 61.5765 11.286C61.0005 11.844 60.7125 12.6 60.7125 13.554C60.7125 14.22 60.8655 14.778 61.1715 15.228C61.4955 15.66 61.8915 16.011 62.3595 16.281C62.8455 16.551 63.4845 16.848 64.2765 17.172C65.2305 17.568 65.9955 17.946 66.5715 18.306C67.1475 18.648 67.6335 19.134 68.0295 19.764C68.4435 20.394 68.6505 21.204 68.6505 22.194C68.6505 23.184 68.4165 24.066 67.9485 24.84C67.4985 25.596 66.8505 26.19 66.0045 26.622C65.1585 27.054 64.1775 27.27 63.0615 27.27ZM72.4638 27V9.45H74.5158V27H72.4638ZM86.0623 27.27C83.6323 27.27 81.7423 26.487 80.3923 24.921C79.0423 23.337 78.3673 21.159 78.3673 18.387C78.3673 16.533 78.6733 14.913 79.2853 13.527C79.9153 12.141 80.7973 11.079 81.9313 10.341C83.0833 9.585 84.4153 9.207 85.9273 9.207C86.7553 9.207 87.5473 9.315 88.3033 9.531C89.0773 9.747 89.7343 9.99 90.2743 10.26C90.8143 10.53 91.0843 10.674 91.0843 10.692L90.8413 11.988C90.8413 11.97 90.5803 11.835 90.0583 11.583C89.5363 11.331 88.9243 11.097 88.2223 10.881C87.5383 10.665 86.8453 10.557 86.1433 10.557C84.3973 10.557 83.0293 11.223 82.0393 12.555C81.0493 13.869 80.5543 15.795 80.5543 18.333C80.5543 20.835 81.0583 22.725 82.0663 24.003C83.0743 25.281 84.4873 25.92 86.3053 25.92C87.2593 25.92 88.0963 25.722 88.8163 25.326C89.5363 24.93 90.1033 24.507 90.5173 24.057C90.9493 23.607 91.1653 23.346 91.1653 23.274L91.9213 24.138C91.9213 24.228 91.6873 24.543 91.2193 25.083C90.7513 25.605 90.0763 26.1 89.1943 26.568C88.3303 27.036 87.2863 27.27 86.0623 27.27ZM97.7077 27L92.8747 9.45H95.0347L99.0307 24.651L103.324 9.45H105.133L109.507 24.624L113.395 9.45H114.907L110.182 27H108.292L103.918 12.042L99.5977 27H97.7077ZM117.894 27V9.45H127.344V10.746H119.946V17.496H126.723V18.738H119.946V25.704H127.938V27H117.894ZM129.662 27L135.575 9.45H137.978L143.783 27H141.65L139.814 21.6H132.929L131.093 27H129.662ZM133.307 20.493H139.463L136.412 11.016L133.307 20.493ZM146.925 9.45H151.164C152.946 9.45 154.341 9.918 155.349 10.854C156.357 11.772 156.861 13.095 156.861 14.823C156.861 16.209 156.564 17.343 155.97 18.225C155.376 19.107 154.593 19.737 153.621 20.115L158.022 27H155.673L151.65 20.493H148.977V27H146.925V9.45ZM151.164 19.278C152.334 19.278 153.216 18.945 153.81 18.279C154.404 17.613 154.701 16.488 154.701 14.904C154.701 12.06 153.441 10.638 150.921 10.638H148.977V19.278H151.164Z" fill="white"/>
</svg>
