<svg width="34" height="34" viewBox="0 0 34 34" fill="none" xmlns="http://www.w3.org/2000/svg">
<path d="M5.8327 32.2365C7.97613 32.2365 9.71373 30.6918 9.71373 28.7863C9.71373 26.8809 7.97613 25.3362 5.8327 25.3362C3.68926 25.3362 1.95166 26.8809 1.95166 28.7863C1.95166 30.6918 3.68926 32.2365 5.8327 32.2365Z" stroke="#222222" stroke-width="2" stroke-linecap="round" stroke-linejoin="round"/>
<path d="M27.1779 32.2365C29.3213 32.2365 31.0589 30.6918 31.0589 28.7863C31.0589 26.8809 29.3213 25.3362 27.1779 25.3362C25.0345 25.3362 23.2969 26.8809 23.2969 28.7863C23.2969 30.6918 25.0345 32.2365 27.1779 32.2365Z" stroke="#222222" stroke-width="2" stroke-linecap="round" stroke-linejoin="round"/>
<path d="M27.1784 25.3362H5.8327V1.18652H1.95166" stroke="#222222" stroke-width="2" stroke-linecap="round" stroke-linejoin="round"/>
<path d="M5.83252 4.63599L32.9998 6.36088L31.0593 18.4352H5.83252" stroke="#222222" stroke-width="2" stroke-linecap="round" stroke-linejoin="round"/>
</svg>
