<svg width="33" height="34" viewBox="0 0 33 34" fill="none" xmlns="http://www.w3.org/2000/svg">
<path d="M15.2677 1.18652L31.3188 17.2376C31.7575 17.7281 32 18.3631 32 19.0211C32 19.6791 31.7575 20.3141 31.3188 20.8046L20.618 31.5053C20.1276 31.944 19.4926 32.1865 18.8346 32.1865C18.1765 32.1865 17.5416 31.944 17.0511 31.5053L1 15.4542V8.32035C1 6.42834 1.7516 4.61383 3.08945 3.27597C4.4273 1.93812 6.24182 1.18652 8.13383 1.18652H15.2677Z" stroke="#222222" stroke-width="2" stroke-linecap="round" stroke-linejoin="round"/>
<path d="M11.7007 15.4546C13.6706 15.4546 15.2676 13.8576 15.2676 11.8876C15.2676 9.91757 13.6706 8.32056 11.7007 8.32056C9.73074 8.32056 8.13379 9.91757 8.13379 11.8876C8.13379 13.8576 9.73074 15.4546 11.7007 15.4546Z" stroke="#222222" stroke-width="2" stroke-linecap="round" stroke-linejoin="round"/>
</svg>
