<svg width="37" height="38" viewBox="0 0 37 38" fill="none" xmlns="http://www.w3.org/2000/svg">
<path d="M12.6465 18.9756L16.5368 22.8601L24.3175 15.0912" stroke="#222222" stroke-width="2" stroke-linecap="round" stroke-linejoin="round"/>
<path d="M18.4815 1.49609C23.0251 5.50984 28.9552 7.59966 35.0154 7.32276C35.8977 10.3196 36.1677 13.463 35.8093 16.5661C35.4508 19.6693 34.4714 22.6688 32.929 25.3865C31.3867 28.1041 29.3129 30.4845 26.831 32.3861C24.3491 34.2878 21.5097 35.6718 18.4815 36.4561C15.4533 35.6718 12.6138 34.2878 10.1319 32.3861C7.65003 30.4845 5.57629 28.1041 4.03394 25.3865C2.49159 22.6688 1.51211 19.6693 1.1537 16.5661C0.795283 13.463 1.06525 10.3196 1.94757 7.32276C8.00779 7.59966 13.9379 5.50984 18.4815 1.49609" stroke="#222222" stroke-width="2" stroke-linecap="round" stroke-linejoin="round"/>
</svg>
