<svg width="35" height="35" viewBox="0 0 35 35" fill="none" xmlns="http://www.w3.org/2000/svg">
<path d="M17.6625 33.8565C26.6854 33.8565 33.9999 26.5431 33.9999 17.5215C33.9999 8.49995 26.6854 1.18652 17.6625 1.18652C8.63967 1.18652 1.3252 8.49995 1.3252 17.5215C1.3252 26.5431 8.63967 33.8565 17.6625 33.8565Z" stroke="#222222" stroke-width="2" stroke-linecap="round" stroke-linejoin="round"/>
<path d="M22.7453 12.0768C22.4165 11.5064 21.9387 11.0362 21.3632 10.7165C20.7876 10.3967 20.1359 10.2395 19.4779 10.2617H15.8473C14.8845 10.2617 13.961 10.6442 13.2802 11.3249C12.5993 12.0057 12.2168 12.9291 12.2168 13.8918C12.2168 14.8546 12.5993 15.7779 13.2802 16.4587C13.961 17.1395 14.8845 17.5219 15.8473 17.5219H19.4779C20.4407 17.5219 21.3642 17.9044 22.045 18.5852C22.7259 19.266 23.1084 20.1893 23.1084 21.1521C23.1084 22.1148 22.7259 23.0382 22.045 23.719C21.3642 24.3997 20.4407 24.7822 19.4779 24.7822H15.8473C15.1893 24.8044 14.5376 24.6472 13.962 24.3274C13.3865 24.0077 12.9087 23.5375 12.5798 22.9671" stroke="#222222" stroke-width="2" stroke-linecap="round" stroke-linejoin="round"/>
<path d="M17.6621 6.63062V10.2607M17.6621 24.7808V28.4109" stroke="#222222" stroke-width="2" stroke-linecap="round" stroke-linejoin="round"/>
</svg>
